<svg id="Layer_1" data-name="Layer 1" xmlns="http://www.w3.org/2000/svg" width="137.69mm" height="186.3mm" viewBox="0 0 390.3 528.09"><defs><style>.cls-1{fill:#8ba082;}.cls-2{fill:#fbdad4;}.cls-3,.cls-4{fill:none;}.cls-3{stroke:#fff;stroke-miterlimit:10;}</style></defs><title>ananasfav</title><path class="cls-1" d="M203.58,257.66s-62.87,19.1-79.5,31.15c0,0-36.5,1.66-41,.26s25.36-9.94,25.36-9.94L73.64,250.87l28.88-5-43.38-32L105.79,228S61.72,178.06,56.5,162.72l34,12S57.7,127.46,57.28,110.24l14,9.53L64.49,56,97.55,77.85,84.45,18.17s39.24,55.77,41.24,62.89l7.14-24.14,24.57,82.87L178.18,100l-1.13,63.69,21-13-4.14,64.07s19.63-12.43,24.55-12l-21.59,37.71L214,233.82S212,255,203.58,257.66Z"/><path class="cls-2" d="M256.18,284.59a65.58,65.58,0,0,0-48.42-16.51C168.6,270.8,95.15,288.54,102.84,384c10.43,129.52,121.7,117.54,143.88,107.27s82.07-43.07,49.39-142.61C296.11,348.66,285.42,310.93,256.18,284.59Z"/><line class="cls-3" x1="284.8" y1="322.03" x2="217.3" y2="496.57"/><line class="cls-3" x1="300.35" y1="363.15" x2="246.72" y2="491.27"/><line class="cls-4" x1="304.98" y1="414.89" x2="280.76" y2="467.83"/><line class="cls-3" x1="305.66" y1="401.92" x2="268.78" y2="478.36"/><polyline class="cls-3" points="118.23 443.15 187.4 270.68 261.39 483.4"/><line class="cls-3" x1="147.75" y1="286.22" x2="102.56" y2="376.61"/><polyline class="cls-3" points="105.06 345.28 139.78 471.6 221.42 268.54 286.75 460.93"/><polyline class="cls-3" points="114.28 316.37 166.51 488 249.24 279.16"/><polyline class="cls-3" points="137.06 291.78 197.48 496.43 266.98 300.54"/><line class="cls-3" x1="160.96" y1="278.32" x2="229.85" y2="495.76"/><line class="cls-3" x1="242.56" y1="275.2" x2="302.56" y2="428.34"/><path class="cls-3" d="M125.69,81.06s-7.83,58.47-3.65,65.47L57.28,110.24"/><line class="cls-3" x1="97.55" y1="77.85" x2="123.14" y2="102.66"/><path class="cls-3" d="M115.24,203.24l-29.81-9.37L105.79,228l19.75-54.54,23.25,12.07c-5.47-12.18,8.61-45.73,8.61-45.73S174.11,167.72,174,182.1"/><polyline class="cls-3" points="178.59 248.53 124.23 241.69 127.9 268.39 158.8 272.81 200.28 221.93 192.95 261.01"/><polyline class="cls-3" points="127.9 268.39 107.53 266.86 126.55 287.03"/><path class="cls-3" d="M153.73,245.4s8.48-58.7,20.24-63.3L187.18,238l10.87-87.26"/><path class="cls-3" d="M124.23,241.7s-7-13.69-65.09-27.84"/><path class="cls-3" d="M148.79,185.52s14.81,14.31,16.08,11"/><path class="cls-3" d="M118.4,190.64s-30.94-19.52-61.9-27.92"/><path class="cls-3" d="M90.55,128.89S76.18,84.34,77.34,78.15c0,0,45.18,29.79,44.66,36.38"/></svg>
