<svg xmlns="http://www.w3.org/2000/svg" xmlns:xlink="http://www.w3.org/1999/xlink" width="500" height="500" viewBox="0 0 500 500"><defs><style>.cls-1{fill:#f58e1e;}.cls-2{fill:#273244;}.cls-10,.cls-11,.cls-13,.cls-15,.cls-2,.cls-3,.cls-5,.cls-6,.cls-7,.cls-9{fill-rule:evenodd;}.cls-3{fill:#5f2000;}.cls-4,.cls-9{fill:#ffcfb4;}.cls-5,.cls-8{fill:#783fb0;}.cls-6{fill:url(#radial-gradient);}.cls-7{fill:#552f00;}.cls-10,.cls-12{opacity:0.25;}.cls-13,.cls-14{fill:#fff;}.cls-15{fill:#8cb3ed;}.cls-16{fill:#1f2531;}.cls-17{fill:#ff9207;}</style><radialGradient id="radial-gradient" cx="373.95" cy="400.58" r="51.53" gradientUnits="userSpaceOnUse"><stop offset="0.48" stop-color="#fff"/><stop offset="0.58" stop-color="#e4d9ef"/><stop offset="0.81" stop-color="#a078c7"/><stop offset="0.93" stop-color="#783fb0"/></radialGradient></defs><title>annonce</title><g id="bld_1" data-name="bld 1"><rect class="cls-1" x="-2" y="-3" width="505" height="505"/><polygon class="cls-2" points="505 -3 505 502 0 502 505 -3"/><path class="cls-3" d="M43,175c-3.71,5.73-7.06,14.46-10,24a73.92,73.92,0,0,0-3,25c1.55,26.65,18.26,28.43,19,49,.7,19.62-14.2,26.29-10,48a40.54,40.54,0,0,0,6,15c7.64,11.32,19.39,15.16,25,17,25.36,8.29,48.19-3.1,54-6,7.57-3.78,16.66-8.47,23-19,2.27-3.77,8.27-13.75,6-25s-10.49-12-22-31c-5.37-8.86-4-7.29-4-12,.14-13.72,11.12-23.32,13-40,.74-6.54-.93-11.65-3-18-3.77-11.57-7-20-13-27-6.6-7.71-12.41-14.33-21-19-5.91-3.21-18.15-6.78-30-4-8.82,2.07-14.76,7.86-19,12S46.25,170,43,175Z"/><ellipse class="cls-4" cx="396.94" cy="273.33" rx="67.56" ry="56.17" transform="translate(47.03 604.75) rotate(-78)"/><path class="cls-5" d="M446,385,395.74,503H291.13l16.76-147.39a14.31,14.31,0,0,1,16.92-11l22.67,4.83,69.82,14.84,17.7,3.77A14.28,14.28,0,0,1,446,385Z"/><path class="cls-6" d="M424.39,407.63c-6.77,30-34.84,49.18-62.7,42.88s-45-35.69-38.19-65.66a57.55,57.55,0,0,1,24-35.4l69.82,14.84A57.49,57.49,0,0,1,424.39,407.63Z"/><rect x="353.07" y="370.98" width="35.99" height="66.84" rx="2.47" transform="translate(109.88 -78.31) rotate(14.12)"/><rect class="cls-4" x="368.8" y="312.71" width="29.78" height="51.62" rx="6.35" transform="matrix(0.98, 0.21, -0.21, 0.98, 78.8, -72.4)"/><path class="cls-7" d="M338.68,230.76c-5.8,11.6-4.88,16.07-4.76,22.59a30.81,30.81,0,0,0,2.38,10.7c1.3,3.26,2.26,5.57,4.76,7.13.37.23,4.06,2.47,7.13,1.19,3.69-1.54,3.46-6.87,5.94-16.65,2.72-10.67,6.8-19.33,8.33-19,.87.18.13,3.15,2.37,7.14a9.94,9.94,0,0,0,4.76,4.75c.39.16,4.14,1.65,5.94,0,2.12-1.93-1.12-5.74,0-11.89.18-1,1.21-6.61,6-9.51,3.82-2.33,9.72-2.67,11.89,0s-1.06,6.48,1.18,9.51c1.67,2.26,5.06,2.34,9.51,2.38,10.13.09,13-3.25,16.65-1.19,3.94,2.25,4.47,8.49,4.75,11.89.73,8.7-3.45,11.14-1.19,16.64,1.18,2.84,3.4,4.89,7.14,8.32a64.69,64.69,0,0,0,5.94,4.76c5.94,4.31,6.77,3.79,8.32,5.94,2.59,3.6,1,6.06,3.57,8.33a8,8,0,0,0,8.32,1.18c1.7-.91,4-3.45,3.57-17.83-.42-13.48-2.58-15.08-3.57-28.53-.88-12,.55-14.64-2.38-20.21-1.49-2.85-4.56-5.86-10.7-11.89s-9.27-9.06-13.07-10.7-7.34-1.9-14.27-2.37c-9.5-.65-9.51.79-15.45,0-9.19-1.24-9.71-4.7-19-5.95-3.48-.46-9.18-1.16-15.46,1.19-6.92,2.59-10.85,7.5-14.27,11.89C348.43,216.34,346,216.08,338.68,230.76Z"/><rect class="cls-8" x="394.16" y="415.46" width="109.37" height="17.32" rx="7.28" transform="translate(742.89 -118.91) rotate(75.06)"/><rect class="cls-8" x="234.86" y="382.17" width="109.37" height="17.32" rx="7.28" transform="translate(775.79 403.29) rotate(128)"/><rect class="cls-4" x="369.67" y="431.17" width="110.82" height="19.1" rx="7.28" transform="translate(371.23 -169.22) rotate(38.92)"/><rect class="cls-4" x="249.98" y="407.33" width="111.02" height="18.08" rx="7.28" transform="translate(-94.35 89.55) rotate(-14.47)"/><ellipse class="cls-4" cx="83.95" cy="215.92" rx="43.72" ry="52.59" transform="translate(-26.03 12.02) rotate(-7.1)"/><path class="cls-9" d="M139.31,370l-32.07,33.27-29.16,10.1L76.45,407l-16-62.35-8.22-32L50,304c-1.14-6.44-5-12.71,0-13l31-12,25-2,24,4c5-.29,4.87,10.57,6,17l0,.87,1.55,33.76.56,12.2Z"/><rect class="cls-4" x="79.86" y="242.45" width="25.05" height="43.42" rx="6.35" transform="translate(-31.92 13.43) rotate(-7.1)"/><rect class="cls-4" x="87.66" y="283.6" width="92" height="17.18" rx="7.28" transform="translate(434.78 404.28) rotate(135)"/><path class="cls-9" d="M62,307.46l-1,1.79A7.59,7.59,0,0,1,50.65,312l-29-16.68-4.32-2.47L14.13,291a7.54,7.54,0,0,1-2.53-2.39.08.08,0,0,1,0,0,6.82,6.82,0,0,1-.62-1.16,7.47,7.47,0,0,1,.42-6.67l1-1.79a7.49,7.49,0,0,1,3.78-3.22,7.54,7.54,0,0,1,6.53.47L31.05,281l1.6.91L59.23,297.2A7.52,7.52,0,0,1,62,307.46Z"/><path class="cls-10" d="M155.58,262.32l3,1.75a16.21,16.21,0,0,1,2.26-2.5,5.28,5.28,0,0,1,2.58-1.26l-56.4-52.24a8.12,8.12,0,0,0-10.83,0,6.74,6.74,0,0,0,0,10l51.61,47.81A5.19,5.19,0,0,1,155.58,262.32Z"/><path class="cls-10" d="M75.83,224.23a7.18,7.18,0,0,0-3-4.38,8.27,8.27,0,0,0-11,1.55L19.16,275.22l-6.8,8.58A6.76,6.76,0,0,0,11,286.6a2.34,2.34,0,0,0-.09.46,6,6,0,0,0,.65,1.12l0,0a6.86,6.86,0,0,0,1.51,2,5.8,5.8,0,0,1,2.61-1c4.3-3.25,7.63-7.27,13.19-9a4.83,4.83,0,0,1,5,1L74.49,230a6.9,6.9,0,0,0,1.51-4.3A6.28,6.28,0,0,0,75.83,224.23Z"/><rect class="cls-4" x="86.09" y="228.81" width="92" height="14.57" rx="7.28" transform="translate(205.63 -24.25) rotate(45)"/><path class="cls-9" d="M71.94,223.41a6.37,6.37,0,0,1-.2,1.5,7.1,7.1,0,0,1-1.3,2.77l-40.72,52.9L23.21,289a7.3,7.3,0,0,1-7,2.73,7.25,7.25,0,0,1-5.41-4.22.08.08,0,0,1,0,0,6.65,6.65,0,0,1-.48-1.59,6.81,6.81,0,0,1-.13-1.5,7.27,7.27,0,0,1,1.5-4.27l3.83-5,43.4-56.38a7.28,7.28,0,0,1,13,4.62Z"/><path class="cls-11" d="M405.64,315.42c-1.67,8-10.8,12.79-20.39,10.78s-16-10.1-14.33-18.07Z"/><path class="cls-10" d="M98,323a24.79,24.79,0,0,1-24.57,25,24.13,24.13,0,0,1-12.61-3.54l-8.6-34.08A24.63,24.63,0,0,1,98,323Z"/><ellipse class="cls-12" cx="119.5" cy="315" rx="24.5" ry="25"/><circle class="cls-4" cx="72.5" cy="321.5" r="23.5"/><circle class="cls-4" cx="120.5" cy="313.5" r="23.5"/><path class="cls-13" d="M95.87,318.49A23.66,23.66,0,1,1,49.16,326C47.07,313.14,93.78,305.59,95.87,318.49Z"/><path class="cls-13" d="M143.88,310.63a23.66,23.66,0,1,1-46.71,7.55C95.08,305.28,141.79,297.73,143.88,310.63Z"/><polygon class="cls-13" points="86.64 322.59 109.67 319.85 110.14 322.71 87.1 325.45 86.64 322.59"/><polygon class="cls-11" points="503 -3 503 2.96 123.31 397 91.24 430.27 22.13 502 -2 502 -2 496.97 60.45 434.02 122.15 371.83 494.02 -3 503 -3"/><path d="M155.84,83.22H122.25v-56h32.3V37.48H134.87V49.94h18.32V60.17H134.87V73h21Z"/><path d="M211.82,83.22H197.33L188.62,68.8c-.65-1.09-1.28-2.07-1.88-2.92a16.36,16.36,0,0,0-1.81-2.21A7.45,7.45,0,0,0,183,62.26a4.93,4.93,0,0,0-2.17-.49h-3.39V83.22H164.83v-56h20q20.38,0,20.39,15.24a15.79,15.79,0,0,1-.9,5.41,15,15,0,0,1-2.54,4.47,16.1,16.1,0,0,1-4,3.44A20.37,20.37,0,0,1,192.64,58v.16a8,8,0,0,1,2.42,1.27,17.89,17.89,0,0,1,2.27,2A29.12,29.12,0,0,1,199.42,64c.66.9,1.27,1.78,1.81,2.64ZM177.45,36.66V52.24h5.46a9.09,9.09,0,0,0,6.53-2.34,7.86,7.86,0,0,0,2.5-5.9q0-7.35-8.79-7.34Z"/><path d="M239.12,83.22v-56H259q29.83,0,29.84,27.31,0,13.08-8.14,20.9T259,83.22Zm12.62-45.74V73H258q8.2,0,12.87-4.92t4.67-13.4q0-8-4.63-12.59t-13-4.59Z"/><path d="M331.7,83.22H298.11v-56h32.3V37.48H310.73V49.94h18.32V60.17H310.73V73h21Z"/><path d="M380,37.48h-16V83.22H351.39V37.48h-15.9V27.2H380Z"/><path d="M152.37,159.2q-12,0-19.61-7.84T125.18,131q0-13.27,7.7-21.48t20.39-8.2q12,0,19.39,7.85t7.4,20.7q0,13.2-7.67,21.29T152.37,159.2Zm.54-47.08a12.7,12.7,0,0,0-10.54,5q-3.92,5-3.91,13.18t3.91,13.16a12.5,12.5,0,0,0,10.23,4.85A12.63,12.63,0,0,0,163,143.59q3.83-4.71,3.83-13.07,0-8.7-3.71-13.55A12.1,12.1,0,0,0,152.91,112.12Z"/><path d="M235.92,158.22H220l-16.32-24.34a22.32,22.32,0,0,1-1.49-3.08H202v27.42H189.36v-56H202v26.49h.19c.31-.73.83-1.77,1.56-3.13L219.2,102.2h15l-19.53,26.72Z"/><path d="M290.53,158.22H276.78l-4-12.46H252.88l-3.95,12.46H235.26l20.39-56h15Zm-20.62-22.15-6-18.83a24.39,24.39,0,0,1-.94-5h-.31a21.53,21.53,0,0,1-1,4.89l-6.09,19Z"/><path d="M339.75,102.2l-18.24,36.1v19.92H308.89V138.53L291.12,102.2h14.41l9,20.9c.16.39.59,1.92,1.29,4.57H316a20.44,20.44,0,0,1,1.21-4.41l9.18-21.06Z"/><path d="M350,142a11.07,11.07,0,0,1-.61-2.29,14.67,14.67,0,0,1-.22-2.4,13.91,13.91,0,0,1,.36-3.28,11.15,11.15,0,0,1,1-2.79,13,13,0,0,1,1.76-2.5,21.51,21.51,0,0,1,2.46-2.37c1-.83,1.86-1.6,2.6-2.32a16.54,16.54,0,0,0,1.89-2.15,8.38,8.38,0,0,0,1.17-2.23,7.91,7.91,0,0,0,.39-2.56,5.91,5.91,0,0,0-.42-2.24,5.06,5.06,0,0,0-1.24-1.78,5.89,5.89,0,0,0-1.95-1.17,7.2,7.2,0,0,0-2.56-.43,17.45,17.45,0,0,0-6.33,1.27,21,21,0,0,0-6.21,3.85V104.86a24.44,24.44,0,0,1,6.57-2.7,30.23,30.23,0,0,1,7.34-.89,27,27,0,0,1,6.76.8,15.44,15.44,0,0,1,5.45,2.52,11.78,11.78,0,0,1,3.63,4.39,14.54,14.54,0,0,1,1.31,6.43,15.59,15.59,0,0,1-.55,4.31,14.54,14.54,0,0,1-1.6,3.66,18.77,18.77,0,0,1-2.62,3.3q-1.56,1.57-3.59,3.26c-.91.75-1.71,1.46-2.4,2.11a12.92,12.92,0,0,0-1.72,1.93,7.66,7.66,0,0,0-1,2,8,8,0,0,0-.35,2.44,7.58,7.58,0,0,0,.26,1.92,5.26,5.26,0,0,0,.68,1.64Zm5.7,17.11a7.45,7.45,0,0,1-5.2-1.88,6.13,6.13,0,0,1-2.07-4.61,5.87,5.87,0,0,1,2.07-4.57,7.56,7.56,0,0,1,5.2-1.83,7.37,7.37,0,0,1,5.12,1.83,5.85,5.85,0,0,1,2,4.57,6,6,0,0,1-2,4.65A7.4,7.4,0,0,1,355.65,159.12Z"/><path class="cls-14" d="M155.84,76.22H122.25v-56h32.3V30.48H134.87V42.94h18.32V53.17H134.87V66h21Z"/><path class="cls-14" d="M211.82,76.22H197.33L188.62,61.8c-.65-1.09-1.28-2.07-1.88-2.92a16.36,16.36,0,0,0-1.81-2.21A7.45,7.45,0,0,0,183,55.26a4.93,4.93,0,0,0-2.17-.49h-3.39V76.22H164.83v-56h20q20.38,0,20.39,15.24a15.79,15.79,0,0,1-.9,5.41,15,15,0,0,1-2.54,4.47,16.1,16.1,0,0,1-4,3.44A20.37,20.37,0,0,1,192.64,51v.16a8,8,0,0,1,2.42,1.27,17.89,17.89,0,0,1,2.27,2A29.12,29.12,0,0,1,199.42,57c.66.9,1.27,1.78,1.81,2.64ZM177.45,29.66V45.24h5.46a9.09,9.09,0,0,0,6.53-2.34,7.86,7.86,0,0,0,2.5-5.9q0-7.35-8.79-7.34Z"/><path class="cls-14" d="M239.12,76.22v-56H259q29.83,0,29.84,27.31,0,13.08-8.14,20.9T259,76.22Zm12.62-45.74V66H258q8.2,0,12.87-4.92t4.67-13.4q0-8-4.63-12.59t-13-4.59Z"/><path class="cls-14" d="M331.7,76.22H298.11v-56h32.3V30.48H310.73V42.94h18.32V53.17H310.73V66h21Z"/><path class="cls-14" d="M380,30.48h-16V76.22H351.39V30.48h-15.9V20.2H380Z"/><path class="cls-14" d="M152.37,152.2q-12,0-19.61-7.84T125.18,124q0-13.28,7.7-21.48t20.39-8.2q12,0,19.39,7.85t7.4,20.7q0,13.2-7.67,21.29T152.37,152.2Zm.54-47.08a12.7,12.7,0,0,0-10.54,5q-3.92,5-3.91,13.18t3.91,13.16a12.5,12.5,0,0,0,10.23,4.85A12.63,12.63,0,0,0,163,136.59q3.83-4.71,3.83-13.07,0-8.7-3.71-13.55A12.1,12.1,0,0,0,152.91,105.12Z"/><path class="cls-14" d="M235.92,151.22H220l-16.32-24.34a22.32,22.32,0,0,1-1.49-3.08H202v27.42H189.36v-56H202v26.49h.19c.31-.73.83-1.77,1.56-3.13L219.2,95.2h15l-19.53,26.72Z"/><path class="cls-14" d="M290.53,151.22H276.78l-4-12.46H252.88l-3.95,12.46H235.26l20.39-56h15Zm-20.62-22.15-6-18.83a24.39,24.39,0,0,1-.94-5h-.31a21.53,21.53,0,0,1-1,4.89l-6.09,19Z"/><path class="cls-14" d="M339.75,95.2l-18.24,36.1v19.92H308.89V131.53L291.12,95.2h14.41l9,20.9c.16.39.59,1.92,1.29,4.57H316a20.44,20.44,0,0,1,1.21-4.41l9.18-21.06Z"/><path class="cls-14" d="M350,135a11.07,11.07,0,0,1-.61-2.29,14.67,14.67,0,0,1-.22-2.4,13.91,13.91,0,0,1,.36-3.28,11.15,11.15,0,0,1,1-2.79,13,13,0,0,1,1.76-2.5,21.51,21.51,0,0,1,2.46-2.37c1-.83,1.86-1.6,2.6-2.32a16.54,16.54,0,0,0,1.89-2.15,8.38,8.38,0,0,0,1.17-2.23,7.91,7.91,0,0,0,.39-2.56,5.91,5.91,0,0,0-.42-2.24,5.06,5.06,0,0,0-1.24-1.78,5.89,5.89,0,0,0-1.95-1.17,7.2,7.2,0,0,0-2.56-.43,17.45,17.45,0,0,0-6.33,1.27,21,21,0,0,0-6.21,3.85V97.86a24.44,24.44,0,0,1,6.57-2.7,30.23,30.23,0,0,1,7.34-.89,27,27,0,0,1,6.76.8,15.44,15.44,0,0,1,5.45,2.52,11.78,11.78,0,0,1,3.63,4.39,14.54,14.54,0,0,1,1.31,6.43,15.59,15.59,0,0,1-.55,4.31,14.54,14.54,0,0,1-1.6,3.66,18.77,18.77,0,0,1-2.62,3.3q-1.56,1.57-3.59,3.26c-.91.75-1.71,1.46-2.4,2.11a12.92,12.92,0,0,0-1.72,1.93,7.66,7.66,0,0,0-1,2,8,8,0,0,0-.35,2.44,7.58,7.58,0,0,0,.26,1.92,5.26,5.26,0,0,0,.68,1.64Zm5.7,17.11a7.45,7.45,0,0,1-5.2-1.88,6.13,6.13,0,0,1-2.07-4.61,5.87,5.87,0,0,1,2.07-4.57,7.56,7.56,0,0,1,5.2-1.83,7.37,7.37,0,0,1,5.12,1.83,5.85,5.85,0,0,1,2,4.57,6,6,0,0,1-2,4.65A7.4,7.4,0,0,1,355.65,152.12Z"/><path class="cls-3" d="M41,194c.79.39,3-6.66,10-10,6.07-2.91,12.42-1.4,14-1,8.46,2.14,8.31,7.36,18,12,6.18,3,11.7,3.44,18,4a72.23,72.23,0,0,0,19-1c6.09-.93,6.72-1.62,7-2,3.66-4.95-6-20.45-18-29-3.58-2.54-13.17-9.19-27-9a43.55,43.55,0,0,0-33,16C41.81,183,40.06,193.54,41,194Z"/><path class="cls-10" d="M108.54,242.09a3.83,3.83,0,0,0,4.34,3.75c1.77-.44,3.56-3.21,2.07-5.35l-4.71-5.79Z"/><path class="cls-10" d="M67.11,243a3.83,3.83,0,0,0,2.8,5c1.82.18,4.43-1.81,3.76-4.33l-2.46-7Z"/><path class="cls-10" d="M62.54,256.09a3.83,3.83,0,0,0,4.34,3.75c1.77-.44,3.56-3.21,2.07-5.35l-4.71-5.79Z"/><path class="cls-10" d="M99.54,232.09a3.83,3.83,0,0,0,4.34,3.75c1.77-.44,3.56-3.21,2.07-5.35l-4.71-5.79Z"/><path class="cls-15" d="M99.54,231.09a3.83,3.83,0,0,0,4.34,3.75c1.77-.44,3.56-3.21,2.07-5.35l-4.71-5.79Z"/><path class="cls-15" d="M108.54,241.09a3.83,3.83,0,0,0,4.34,3.75c1.77-.44,3.56-3.21,2.07-5.35l-4.71-5.79Z"/><path class="cls-15" d="M67.11,242a3.83,3.83,0,0,0,2.8,5c1.82.18,4.43-1.81,3.76-4.33l-2.46-7Z"/><path class="cls-15" d="M62.54,255.09a3.83,3.83,0,0,0,4.34,3.75c1.77-.44,3.56-3.21,2.07-5.35l-4.71-5.79Z"/></g><g id="bld_3" data-name="bld 3"><path class="cls-16" d="M35.23,428.8V415.24S21,419.31,21,406.43V362.38s.68-3.39,6.78-3.39h164s4.07-.68,4.07,6.1v46.08s0,4.07-4.07,4.07H53.53Z"/><path class="cls-17" d="M195.85,422.7s1.35-7.46-4.07-7.46H53.53l-6.81,5.52,0,44.63s-1.35,6.1,4.75,6.1H68.44v14.23l19-14.23h105s3.39.68,3.39-5.42Z"/><path class="cls-14" d="M44,402.36V373.22H58.27a9.2,9.2,0,0,1,6.78,8.14c.68,6.77-3.39,9.48-3.39,9.48s-1.35,2-10.16,1.36v10.16Z"/><path class="cls-16" d="M51.5,378.64v8.14s6.77,0,6.1-4.07S51.5,378.64,51.5,378.64Z"/><path class="cls-14" d="M69.12,402.36V373.22s21-3.39,20.33,9.49c0,0,.68,6.1-5.42,7.46l8.13,12.19H83.35l-6.1-10.16-.68,10.16Z"/><path class="cls-16" d="M76.57,378.64v8.14s6.1,0,6.1-4.07S76.57,378.64,76.57,378.64Z"/><rect class="cls-14" x="95.55" y="373.22" width="7.45" height="29.14"/><polygon class="cls-14" points="107.07 373.22 114.52 373.22 121.98 391.52 129.43 373.22 136.21 373.22 124.69 402.37 119.27 402.37 107.07 373.22"/><polygon class="cls-14" points="132.15 402.37 143.67 373.22 149.76 373.22 161.29 402.37 153.83 402.37 152.48 396.94 140.96 396.94 139.6 402.37 132.15 402.37"/><polygon class="cls-16" points="150.44 390.84 147.05 383.39 144.34 390.84 150.44 390.84"/><polygon class="cls-14" points="166.03 378.64 166.03 402.37 173.49 402.37 173.49 378.64 179.58 378.64 179.58 373.22 159.93 373.22 159.93 378.64 166.03 378.64"/><path class="cls-14" d="M82,434.89l2.71-4.74S71.15,422,66.41,435.57c0,0-2,6.78,7.45,9.49s3.39,6.1,3.39,6.1-2,2.71-8.13-2l-4.07,4.06s9.49,10.17,18.3,1.36c7.35-7.35-.4-12.82-3.16-14.43a6,6,0,0,0-1.61-.62c-2-.45-7.39-2.06-4-6C74.54,433.54,77.93,431.51,82,434.89Z"/><polygon class="cls-14" points="90.13 428.8 96.9 428.8 111.81 446.42 111.81 428.8 118.59 428.8 118.59 457.26 112.49 457.26 97.58 438.96 97.58 457.26 90.13 457.26 90.13 428.8"/><polygon class="cls-14" points="121.3 457.26 132.82 428.12 138.92 428.12 150.44 457.26 142.99 457.26 141.63 451.84 130.11 451.84 128.76 457.26 121.3 457.26"/><polygon class="cls-17" points="139.6 445.74 136.21 438.28 133.5 445.74 139.6 445.74"/><polygon class="cls-14" points="153.15 428.12 159.93 428.12 159.93 439.64 170.1 428.12 178.23 428.12 167.39 442.35 179.58 457.26 170.1 457.26 159.93 445.06 159.93 457.26 153.15 457.26 153.15 428.12"/></g></svg>
