<svg id="Layer_1" data-name="Layer 1" xmlns="http://www.w3.org/2000/svg" width="82.06mm" height="186.42mm" viewBox="0 0 232.62 528.45"><defs><style>.cls-1{fill:#d7e9d1;}.cls-2{fill:#d1e5ef;}.cls-3,.cls-4{fill:none;}.cls-3{stroke:#fff;stroke-miterlimit:10;}</style></defs><title>blå</title><path class="cls-1" d="M139.38,276.71s-49.35-3.88-64.32,0c0,0-26.05-8.87-28.83-11.09s20.52,0,20.52,0L50.12,236.24l21.62,4.43L50.12,206.3,79,229S61.76,181.9,62.31,169.71l20.52,17.74s-10-42.14-5.55-54.33l7.21,10.53L97.24,97.08l17.19,24.39L121.64,76s12.19,49.9,11.64,55.44l11.64-15-5.54,64.87,25.5-22.18-18.29,44.36,18.29-3.33L144.37,244s17.19-3.33,20.51-1.66l-25.5,20.51h13.86S146,277.17,139.38,276.71Z"/><path class="cls-2" d="M168.87,310.05a49.43,49.43,0,0,0-29.42-24.89c-28.21-8.84-84.6-16.59-105.44,52.47C5.73,431.33,87.06,453.51,105.44,452.4s69.39-7.66,73.83-86.44C179.27,366,182.13,336.56,168.87,310.05Z"/><line class="cls-3" x1="178.65" y1="344.17" x2="83.35" y2="448.03"/><line class="cls-3" x1="178.26" y1="377.28" x2="105.44" y2="452.4"/><line class="cls-4" x1="167.29" y1="414.84" x2="135.76" y2="445.31"/><line class="cls-3" x1="171.33" y1="405.93" x2="124.46" y2="449.41"/><polyline class="cls-3" points="28.55 383.35 124.46 281.4 117.89 450.92"/><line class="cls-3" x1="92.37" y1="281.4" x2="35.85" y2="332.37"/><polyline class="cls-3" points="46.21 311.09 35.85 409.22 148.9 289.24 141.85 442.12"/><polyline class="cls-3" points="60.62 293.35 50.09 428.07 165.49 304.33"/><polyline class="cls-3" points="83.35 282.36 69.49 442.49 172.06 324.2"/><line class="cls-3" x1="103.81" y1="279.48" x2="92.37" y2="450.92"/><line class="cls-3" x1="161.9" y1="299.72" x2="161.9" y2="423.61"/><path class="cls-3" d="M133.28,131.45s-21.56,38.85-20.55,44.92L77.28,133.12"/><line class="cls-3" x1="114.43" y1="121.47" x2="125.56" y2="145.9"/><path class="cls-3" d="M92.37,214.27,74.05,199.51,79,229l28.84-32.83,13,14.86c-.49-10.05,18.6-29.71,18.6-29.71s4.05,24.18,0,34.23"/><polyline class="cls-3" points="124.37 263.44 88.11 243.71 83.35 263.44 103.81 275.03 146.88 250.74 131 276.14"/><polyline class="cls-3" points="83.35 263.44 69.49 256.77 77.28 276.14"/><path class="cls-3" d="M107.79,254.42s22.08-38.84,31.59-38.84l-6.1,42.83,31.6-58.21"/><path class="cls-3" d="M88.11,243.71s-1.15-11.53-38-37.41"/><path class="cls-3" d="M120.78,211.06s6.45,14.11,8.26,12.13"/><path class="cls-3" d="M98.05,206.3s-16.33-22.19-35.74-36.59"/><path class="cls-3" d="M95.49,155.34s2.17-35.2,4.68-39.21c0,0,23.5,33.3,21.32,37.78"/></svg>
