<svg id="Layer_1" data-name="Layer 1" xmlns="http://www.w3.org/2000/svg" width="209.74mm" height="249.87mm" viewBox="0 0 594.55 708.29"><defs><style>.cls-1{fill:#bad3af;}.cls-2{fill:#f8ed77;}.cls-3,.cls-4{fill:none;}.cls-3{stroke:#fff;stroke-miterlimit:10;}</style></defs><title>gul</title><path class="cls-1" d="M357.43,378.54s-86.43-5-112.47,2.34c0,0-45.89-14.57-50.82-18.35s35.87-.74,35.87-.74L199.86,311l38,7-39.06-59.33L250,297.35s-31.77-81.79-31.24-103.14L255.3,224.5s-19-73.33-11.67-94.82l13,18.16,20.61-81.9,30.95,42,10.95-79.76s23.14,86.81,22.37,96.53l19.82-26.6L354,211.78l43.79-39.71L367.38,250.3l31.87-6.48L365,321.16s29.93-6.44,35.81-3.65L356.93,354.3l24.23-.5S369,379.11,357.43,378.54Z"/><path class="cls-2" d="M410.2,435.77a86.36,86.36,0,0,0-52.35-42.45c-49.65-14.45-148.54-25.95-182.48,95.58-46,164.88,97,200.71,129.09,198.11s121.07-15.91,126-153.84C430.43,533.17,434.37,481.65,410.2,435.77Z"/><line class="cls-3" x1="428.55" y1="495.09" x2="265.67" y2="680.17"/><line class="cls-3" x1="429.07" y1="553.01" x2="304.46" y2="687.01"/><line class="cls-4" x1="411.24" y1="619.08" x2="357.21" y2="673.52"/><line class="cls-3" x1="417.99" y1="603.35" x2="337.6" y2="681.09"/><polyline class="cls-3" points="167.49 569.04 331.5 387.28 326.17 683.96"/><line class="cls-3" x1="275.4" y1="388.44" x2="178.4" y2="479.63"/><polyline class="cls-3" points="195.74 442.04 181.19 614.02 374.54 400.11 367.75 667.71"/><polyline class="cls-3" points="220.31 410.49 206.77 646.47 404.09 425.9"/><polyline class="cls-3" points="259.66 390.45 241.23 670.98 416.31 460.41"/><line class="cls-3" x1="295.33" y1="384.68" x2="281.55" y2="684.89"/><line class="cls-3" x1="397.64" y1="417.96" x2="402.14" y2="634.62"/><path class="cls-3" d="M341.49,124.74S305.2,193.47,307.18,204l-63.55-74.35"/><line class="cls-3" x1="308.17" y1="107.97" x2="328.51" y2="150.29"/><path class="cls-3" d="M273,271.05,240.38,245.9,250,297.35l49.24-58.45,23.26,25.51C321.3,246.86,354,211.78,354,211.78s8,42.14,1.24,59.86"/><polyline class="cls-3" points="330.69 355.88 266.58 322.69 258.97 357.37 295.17 376.89 369.61 332.85 342.76 377.85"/><polyline class="cls-3" points="258.97 357.37 234.49 346.2 248.82 379.8"/><path class="cls-3" d="M301.38,340.7s37.2-68.72,53.83-69.06l-9.11,75.12,53.15-102.94"/><path class="cls-3" d="M266.58,322.69s-2.44-20.12-67.8-64"/><path class="cls-3" d="M322.52,264.41s11.79,24.43,14.88,20.91"/><path class="cls-3" d="M282.61,256.91s-29.37-38.21-63.83-62.7"/><path class="cls-3" d="M276.28,167.88s2.51-61.62,6.75-68.74c0,0,42.32,57.39,38.66,65.3"/></svg>
