<svg id="Layer_1" data-name="Layer 1" xmlns="http://www.w3.org/2000/svg" width="147.27mm" height="178.44mm" viewBox="0 0 417.44 505.82"><defs><style>.cls-1{fill:#8ba082;}.cls-2{fill:#fbdad4;}.cls-3,.cls-4{fill:none;}.cls-3{stroke:#fff;stroke-miterlimit:10;}</style></defs><title>pink</title><path class="cls-1" d="M256.6,245.55s-62.88,19.1-79.5,31.14c0,0-36.51,1.66-41,.26S161.45,267,161.45,267l-34.79-28.27,28.87-5-43.37-32,46.64,14.14S114.73,166,109.51,150.6l34,12s-32.74-47.26-33.17-64.48l14,9.53-6.79-63.74,33.06,21.83L137.46,6.05s39.25,55.77,41.25,62.89l7.14-24.14,24.56,82.87L231.2,87.9l-1.14,63.69,21-13-4.15,64.07s19.64-12.43,24.56-12l-21.59,37.71L267,221.7S265,242.92,256.6,245.55Z"/><path class="cls-2" d="M309.19,272.47A65.55,65.55,0,0,0,260.77,256c-39.15,2.73-112.6,20.46-104.91,115.92,10.42,129.52,121.7,117.54,143.88,107.27s82.07-43.07,49.39-142.6C349.13,336.55,338.43,298.82,309.19,272.47Z"/><line class="cls-3" x1="337.81" y1="309.91" x2="270.32" y2="484.45"/><line class="cls-3" x1="353.37" y1="351.03" x2="299.74" y2="479.15"/><line class="cls-4" x1="357.99" y1="402.77" x2="333.78" y2="455.71"/><line class="cls-3" x1="358.68" y1="389.8" x2="321.79" y2="466.24"/><polyline class="cls-3" points="171.25 431.03 240.42 258.56 314.41 471.29"/><line class="cls-3" x1="200.77" y1="274.1" x2="155.58" y2="364.49"/><polyline class="cls-3" points="158.08 333.16 192.8 459.48 274.44 256.42 339.76 448.81"/><polyline class="cls-3" points="167.3 304.25 219.53 475.89 302.25 267.04"/><polyline class="cls-3" points="190.08 279.66 250.5 484.31 320 288.42"/><line class="cls-3" x1="213.98" y1="266.2" x2="282.87" y2="483.64"/><line class="cls-3" x1="295.58" y1="263.08" x2="355.58" y2="416.22"/><path class="cls-3" d="M178.71,68.94s-7.83,58.47-3.66,65.48l-64.76-36.3"/><line class="cls-3" x1="150.57" y1="65.74" x2="176.16" y2="90.54"/><path class="cls-3" d="M168.25,191.12l-29.8-9.37,20.35,34.13,19.76-54.55,23.25,12.07c-5.47-12.18,8.6-45.73,8.6-45.73S227.13,155.6,227,170"/><polyline class="cls-3" points="231.61 236.41 177.25 229.58 180.92 256.27 211.82 260.69 253.29 209.81 245.97 248.9"/><polyline class="cls-3" points="180.92 256.27 160.55 254.74 179.56 274.91"/><path class="cls-3" d="M206.75,233.29S215.23,174.59,227,170l13.21,55.9,10.87-87.26"/><path class="cls-3" d="M177.24,229.58s-7-13.69-65.08-27.84"/><path class="cls-3" d="M201.81,173.4s14.8,14.31,16.08,11"/><path class="cls-3" d="M171.41,178.52S140.48,159,109.51,150.6"/><path class="cls-3" d="M143.57,116.77S129.2,72.22,130.35,66c0,0,45.19,29.79,44.66,36.38"/></svg>
